<mxfile host="app.diagrams.net" agent="Mozilla/5.0 (X11; Ubuntu; Linux x86_64; rv:130.0) Gecko/20100101 Firefox/130.0" version="24.7.17">
  <diagram name="Page-1" id="p6zci0OtSEsvmASUuRoD">
    <mxGraphModel dx="683" dy="369" grid="1" gridSize="10" guides="1" tooltips="1" connect="1" arrows="1" fold="1" page="1" pageScale="1" pageWidth="850" pageHeight="1100" math="0" shadow="0">
      <root>
        <mxCell id="0" />
        <mxCell id="1" parent="0" />
        <mxCell id="mG7Ei3AjOVi1XRo931GV-37" style="edgeStyle=orthogonalEdgeStyle;rounded=0;orthogonalLoop=1;jettySize=auto;html=1;exitX=0.25;exitY=0;exitDx=0;exitDy=0;startArrow=classic;startFill=1;endArrow=none;endFill=0;" edge="1" parent="1" source="mG7Ei3AjOVi1XRo931GV-34">
          <mxGeometry relative="1" as="geometry">
            <mxPoint x="359.8571428571429" y="250" as="targetPoint" />
          </mxGeometry>
        </mxCell>
        <mxCell id="mG7Ei3AjOVi1XRo931GV-38" style="edgeStyle=orthogonalEdgeStyle;rounded=0;orthogonalLoop=1;jettySize=auto;html=1;exitX=0.75;exitY=0;exitDx=0;exitDy=0;startArrow=classic;startFill=1;endArrow=none;endFill=0;" edge="1" parent="1" source="mG7Ei3AjOVi1XRo931GV-34">
          <mxGeometry relative="1" as="geometry">
            <mxPoint x="559.8571428571429" y="250" as="targetPoint" />
          </mxGeometry>
        </mxCell>
        <mxCell id="mG7Ei3AjOVi1XRo931GV-34" value="" style="rounded=0;whiteSpace=wrap;html=1;" vertex="1" parent="1">
          <mxGeometry x="260" y="290" width="400" height="275" as="geometry" />
        </mxCell>
        <mxCell id="mG7Ei3AjOVi1XRo931GV-6" style="edgeStyle=orthogonalEdgeStyle;rounded=0;orthogonalLoop=1;jettySize=auto;html=1;exitX=0.25;exitY=1;exitDx=0;exitDy=0;entryX=1;entryY=0.25;entryDx=0;entryDy=0;" edge="1" parent="1" source="mG7Ei3AjOVi1XRo931GV-1" target="mG7Ei3AjOVi1XRo931GV-3">
          <mxGeometry relative="1" as="geometry" />
        </mxCell>
        <mxCell id="mG7Ei3AjOVi1XRo931GV-1" value="Datapath" style="rounded=0;whiteSpace=wrap;html=1;" vertex="1" parent="1">
          <mxGeometry x="560" y="320" width="80" height="80" as="geometry" />
        </mxCell>
        <mxCell id="mG7Ei3AjOVi1XRo931GV-4" style="edgeStyle=orthogonalEdgeStyle;rounded=0;orthogonalLoop=1;jettySize=auto;html=1;exitX=1;exitY=0.25;exitDx=0;exitDy=0;entryX=0;entryY=0.25;entryDx=0;entryDy=0;" edge="1" parent="1" source="mG7Ei3AjOVi1XRo931GV-2" target="mG7Ei3AjOVi1XRo931GV-1">
          <mxGeometry relative="1" as="geometry" />
        </mxCell>
        <mxCell id="mG7Ei3AjOVi1XRo931GV-17" style="edgeStyle=orthogonalEdgeStyle;rounded=0;orthogonalLoop=1;jettySize=auto;html=1;exitX=0.25;exitY=1;exitDx=0;exitDy=0;entryX=0;entryY=0.75;entryDx=0;entryDy=0;" edge="1" parent="1" source="mG7Ei3AjOVi1XRo931GV-2" target="mG7Ei3AjOVi1XRo931GV-3">
          <mxGeometry relative="1" as="geometry" />
        </mxCell>
        <mxCell id="mG7Ei3AjOVi1XRo931GV-18" style="edgeStyle=orthogonalEdgeStyle;rounded=0;orthogonalLoop=1;jettySize=auto;html=1;exitX=0.75;exitY=1;exitDx=0;exitDy=0;entryX=0;entryY=0.25;entryDx=0;entryDy=0;" edge="1" parent="1" source="mG7Ei3AjOVi1XRo931GV-2" target="mG7Ei3AjOVi1XRo931GV-3">
          <mxGeometry relative="1" as="geometry" />
        </mxCell>
        <mxCell id="mG7Ei3AjOVi1XRo931GV-19" style="edgeStyle=orthogonalEdgeStyle;rounded=0;orthogonalLoop=1;jettySize=auto;html=1;exitX=0.5;exitY=1;exitDx=0;exitDy=0;entryX=0;entryY=0.5;entryDx=0;entryDy=0;" edge="1" parent="1" source="mG7Ei3AjOVi1XRo931GV-2" target="mG7Ei3AjOVi1XRo931GV-3">
          <mxGeometry relative="1" as="geometry" />
        </mxCell>
        <mxCell id="mG7Ei3AjOVi1XRo931GV-20" style="edgeStyle=orthogonalEdgeStyle;rounded=0;orthogonalLoop=1;jettySize=auto;html=1;" edge="1" parent="1">
          <mxGeometry relative="1" as="geometry">
            <mxPoint x="220" y="380" as="targetPoint" />
            <mxPoint x="320" y="380" as="sourcePoint" />
          </mxGeometry>
        </mxCell>
        <mxCell id="mG7Ei3AjOVi1XRo931GV-25" style="edgeStyle=orthogonalEdgeStyle;rounded=0;orthogonalLoop=1;jettySize=auto;html=1;exitX=0;exitY=0.25;exitDx=0;exitDy=0;" edge="1" parent="1" source="mG7Ei3AjOVi1XRo931GV-2">
          <mxGeometry relative="1" as="geometry">
            <mxPoint x="220" y="340" as="targetPoint" />
          </mxGeometry>
        </mxCell>
        <mxCell id="mG7Ei3AjOVi1XRo931GV-29" style="edgeStyle=orthogonalEdgeStyle;rounded=0;orthogonalLoop=1;jettySize=auto;html=1;" edge="1" parent="1" source="mG7Ei3AjOVi1XRo931GV-2">
          <mxGeometry relative="1" as="geometry">
            <mxPoint x="220" y="360" as="targetPoint" />
          </mxGeometry>
        </mxCell>
        <mxCell id="mG7Ei3AjOVi1XRo931GV-2" value="Control" style="rounded=0;whiteSpace=wrap;html=1;" vertex="1" parent="1">
          <mxGeometry x="320" y="320" width="80" height="80" as="geometry" />
        </mxCell>
        <mxCell id="mG7Ei3AjOVi1XRo931GV-7" style="edgeStyle=orthogonalEdgeStyle;rounded=0;orthogonalLoop=1;jettySize=auto;html=1;exitX=1;exitY=0.75;exitDx=0;exitDy=0;entryX=0.75;entryY=1;entryDx=0;entryDy=0;" edge="1" parent="1" source="mG7Ei3AjOVi1XRo931GV-3" target="mG7Ei3AjOVi1XRo931GV-1">
          <mxGeometry relative="1" as="geometry" />
        </mxCell>
        <mxCell id="mG7Ei3AjOVi1XRo931GV-35" style="edgeStyle=orthogonalEdgeStyle;rounded=0;orthogonalLoop=1;jettySize=auto;html=1;" edge="1" parent="1" source="mG7Ei3AjOVi1XRo931GV-3">
          <mxGeometry relative="1" as="geometry">
            <mxPoint x="480" y="590" as="targetPoint" />
          </mxGeometry>
        </mxCell>
        <mxCell id="mG7Ei3AjOVi1XRo931GV-3" value="Memories" style="rounded=0;whiteSpace=wrap;html=1;" vertex="1" parent="1">
          <mxGeometry x="440" y="440" width="80" height="80" as="geometry" />
        </mxCell>
        <mxCell id="mG7Ei3AjOVi1XRo931GV-5" value="Control Word" style="text;html=1;align=center;verticalAlign=middle;whiteSpace=wrap;rounded=0;fontSize=7;" vertex="1" parent="1">
          <mxGeometry x="435" y="320" width="90" height="30" as="geometry" />
        </mxCell>
        <mxCell id="mG7Ei3AjOVi1XRo931GV-11" value="dataOUT" style="text;html=1;align=center;verticalAlign=middle;whiteSpace=wrap;rounded=0;fontSize=7;" vertex="1" parent="1">
          <mxGeometry x="480" y="530" width="30" height="10" as="geometry" />
        </mxCell>
        <mxCell id="mG7Ei3AjOVi1XRo931GV-13" value="&lt;i style=&quot;font-size: 7px;&quot;&gt;Ai,Bi,Ci,Di,Ei,Fi&lt;/i&gt;" style="text;html=1;align=center;verticalAlign=middle;whiteSpace=wrap;rounded=0;fontSize=7;" vertex="1" parent="1">
          <mxGeometry x="550" y="480" width="50" height="30" as="geometry" />
        </mxCell>
        <mxCell id="mG7Ei3AjOVi1XRo931GV-15" value="Det(&lt;i style=&quot;font-size: 7px;&quot;&gt;Mi&lt;/i&gt;)" style="text;html=1;align=center;verticalAlign=middle;whiteSpace=wrap;rounded=0;fontSize=7;" vertex="1" parent="1">
          <mxGeometry x="530" y="440" width="50" height="30" as="geometry" />
        </mxCell>
        <mxCell id="mG7Ei3AjOVi1XRo931GV-21" value="Address OUT" style="text;html=1;align=center;verticalAlign=middle;whiteSpace=wrap;rounded=0;fontSize=7;" vertex="1" parent="1">
          <mxGeometry x="375" y="470" width="55" height="10" as="geometry" />
        </mxCell>
        <mxCell id="mG7Ei3AjOVi1XRo931GV-22" value="Address IN" style="text;html=1;align=center;verticalAlign=middle;whiteSpace=wrap;rounded=0;fontSize=7;" vertex="1" parent="1">
          <mxGeometry x="380" y="450" width="45" height="10" as="geometry" />
        </mxCell>
        <mxCell id="mG7Ei3AjOVi1XRo931GV-23" value="WE" style="text;html=1;align=center;verticalAlign=middle;whiteSpace=wrap;rounded=0;fontSize=7;" vertex="1" parent="1">
          <mxGeometry x="380" y="490" width="20" height="10" as="geometry" />
        </mxCell>
        <mxCell id="mG7Ei3AjOVi1XRo931GV-24" value="WE" style="text;html=1;align=center;verticalAlign=middle;whiteSpace=wrap;rounded=0;fontSize=7;" vertex="1" parent="1">
          <mxGeometry x="290" y="370" width="20" height="10" as="geometry" />
        </mxCell>
        <mxCell id="mG7Ei3AjOVi1XRo931GV-26" value="Done" style="text;html=1;align=center;verticalAlign=middle;whiteSpace=wrap;rounded=0;fontSize=7;" vertex="1" parent="1">
          <mxGeometry x="290" y="330" width="20" height="10" as="geometry" />
        </mxCell>
        <mxCell id="mG7Ei3AjOVi1XRo931GV-30" value="Address OUT" style="text;html=1;align=center;verticalAlign=middle;whiteSpace=wrap;rounded=0;fontSize=7;" vertex="1" parent="1">
          <mxGeometry x="265" y="350" width="55" height="10" as="geometry" />
        </mxCell>
        <mxCell id="mG7Ei3AjOVi1XRo931GV-33" value="CLK" style="text;html=1;align=center;verticalAlign=middle;whiteSpace=wrap;rounded=0;" vertex="1" parent="1">
          <mxGeometry x="330" y="270" width="22" height="20" as="geometry" />
        </mxCell>
        <mxCell id="mG7Ei3AjOVi1XRo931GV-39" value="Reset" style="text;html=1;align=center;verticalAlign=middle;whiteSpace=wrap;rounded=0;" vertex="1" parent="1">
          <mxGeometry x="570" y="270" width="22" height="20" as="geometry" />
        </mxCell>
      </root>
    </mxGraphModel>
  </diagram>
</mxfile>
